# Blender v2.74 (sub 0) OBJ File: 'cubism.blend'
# www.blender.org
mtllib cubism.mtl
o Cube
v -0.500000 -0.500000 0.500000
v 0.026906 0.465904 0.289383
v -0.500000 -0.500000 -0.500000
v -0.311791 0.583777 -0.119679
v 0.500000 -0.500000 0.500000
v 0.137447 0.565501 0.219570
v 0.500000 -0.500000 -0.500000
v -0.002641 0.500000 -0.080810
vt 0.052661 0.512671
vt 0.217841 0.509666
vt 0.330159 0.986837
vt 0.000000 0.986837
vt 0.335864 0.509666
vt 0.227413 0.503924
vt 0.000000 0.069970
vt 0.335864 0.000000
vt 0.474900 0.002259
vt 0.582734 0.000000
vt 0.674164 0.491899
vt 0.335864 0.491899
vt 0.659319 1.000000
vt 0.610976 0.968240
vt 0.335864 0.628373
vt 0.659319 0.491899
vt 1.000000 0.491899
vt 1.000000 0.930218
vt 0.659319 0.930218
vt 0.698715 0.239382
vt 0.674164 0.100082
vt 0.745641 0.000000
vt 0.745641 0.235223
vn -0.921200 0.301000 0.246600
vn 0.050900 0.364400 -0.929800
vn 0.913100 0.390400 -0.118000
vn 0.040300 0.231700 0.972000
vn 0.000000 -1.000000 0.000000
vn -0.030600 0.995100 0.094100
usemtl Material.001
s off
f 2/1/1 4/2/1 3/3/1 1/4/1
f 4/5/2 8/6/2 7/7/2 3/8/2
f 8/9/3 6/10/3 5/11/3 7/12/3
f 6/13/4 2/14/4 1/15/4 5/16/4
f 1/17/5 3/18/5 7/19/5 5/16/5
f 6/20/6 8/21/6 4/22/6 2/23/6
